<svg xmlns="http://www.w3.org/2000/svg" height="24" heigh="24" viewBox="0 0 24 24">
  <path d="M0-.01h24v24H0v-24z" fill="none"/>
  <path d="M2.01 11.99c0 5.52 4.47 9.99 9.99 9.99 5.52 0 9.99-4.47 9.99-9.99C21.99 6.48 17.52 2 12 2c-5.52 0-9.99 4.48-9.99 9.99zm18.05 0c0 4.45-3.61 8.06-8.06 8.06s-8.06-3.61-8.06-8.06S7.55 3.94 12 3.94s8.06 3.6 8.06 8.05zm-2.9-.8v1.61c0 .27-.22.48-.48.48H12v2.7c0 .43-.52.64-.83.34l-3.99-3.99a.477.477 0 010-.68l3.99-3.99c.31-.3.83-.08.83.35v2.7h4.67c.27 0 .49.21.49.48z" fill="#010202"/>
</svg>