<svg xmlns="http://www.w3.org/2000/svg" height="24" heigh="24" viewBox="0 0 24 24">
  <path d="M0-.01h24v24H0v-24z" fill="none"/>
  <path d="M8.22 7.77V6.21c0-.26.21-.47.47-.47h1.57c.26 0 .47.21.47.47v1.56c0 .26-.21.47-.47.47H8.69a.47.47 0 01-.47-.47zm5.51.47h1.57c.26 0 .47-.21.47-.47V6.21a.47.47 0 00-.47-.47h-1.57a.47.47 0 00-.47.47v1.56c0 .26.21.47.47.47zm-5.04 3.75h1.57c.26 0 .47-.21.47-.47V9.96a.47.47 0 00-.47-.47H8.69a.47.47 0 00-.47.47v1.56c0 .26.21.47.47.47zm5.04 0h1.57c.26 0 .47-.21.47-.47V9.96a.47.47 0 00-.47-.47h-1.57a.47.47 0 00-.47.47v1.56c0 .26.21.47.47.47zm-2.99 3.27V13.7a.47.47 0 00-.47-.47H8.69a.47.47 0 00-.47.47v1.56c0 .26.21.47.47.47h1.57c.27 0 .48-.21.48-.47zm2.99.47h1.57c.26 0 .47-.21.47-.47V13.7a.47.47 0 00-.47-.47h-1.57a.47.47 0 00-.47.47v1.56c0 .26.21.47.47.47zm7.09 4.84v1.41H3.18v-1.41c0-.26.21-.47.47-.47h.77V2.93c0-.52.42-.94.94-.94h13.26c.52 0 .94.42.94.94V20.1h.77c.27 0 .49.21.49.47zm-14.51-.51h4.43v-2.61c0-.26.21-.47.47-.47h1.57c.26 0 .47.21.47.47v2.61h4.43V3.91L6.33 3.87l-.02 16.19z" fill="#010202"/>
</svg>