<svg xmlns="http://www.w3.org/2000/svg" height="24" heigh="24" viewBox="0 0 24 24">
  <path d="M0-.01h24v24H0v-24z" fill="none"/>
  <path d="M17.6 20.98l-.32-1.31c-.07-.29-.39-.47-.7-.41-.5.11-1.29.24-2.17.24-3.18 0-5.68-1.76-6.71-4.34h6.29c.28 0 .51-.18.57-.43l.24-1.07c.07-.33-.2-.64-.57-.64H7.04c-.07-.72-.1-1.44-.03-2.14h7.89c.28 0 .51-.18.57-.42l.25-1.07c.08-.33-.2-.65-.57-.65H7.52c1.02-2.6 3.52-4.36 6.8-4.36.71 0 1.4.09 1.86.17.3.05.59-.12.67-.39l.38-1.32c.09-.3-.12-.61-.46-.66-.55-.09-1.43-.21-2.39-.21-4.86 0-8.73 2.85-10 6.77H2.86c-.32 0-.58.24-.58.53v1.07c0 .29.26.53.58.53h1.12c-.06.7-.05 1.58.02 2.14H2.86c-.32 0-.58.24-.58.53v1.07c0 .29.26.53.58.53h1.56c1.26 3.95 5.02 6.77 9.96 6.77 1.19 0 2.21-.19 2.79-.32.31-.05.5-.33.43-.61z" fill="#010202"/>
</svg>