<svg width="10" height="13" viewBox="0 0 10 13" fill="none" xmlns="http://www.w3.org/2000/svg">
<path d="M9.991 12.379L9.78523 11.5259C9.74091 11.3373 9.53197 11.2183 9.3262 11.2618C9.00013 11.3315 8.48729 11.4185 7.91113 11.4185C5.83758 11.4185 4.20724 10.2723 3.53611 8.59219H7.63571C7.81616 8.59219 7.97128 8.47612 8.0061 8.31362L8.16438 7.61719C8.21187 7.39955 8.03459 7.19933 7.794 7.19933H3.10873C3.06125 6.73214 3.04225 6.26205 3.08974 5.80647H8.23403C8.41448 5.80647 8.5696 5.6904 8.60442 5.5308L8.76587 4.83437C8.81652 4.61674 8.63608 4.41362 8.39548 4.41362H3.42214C4.08694 2.71897 5.71729 1.56987 7.85414 1.56987C8.3195 1.56987 8.76904 1.6308 9.06345 1.68013C9.25972 1.71205 9.44967 1.60469 9.50032 1.42768L9.75041 0.56875C9.80739 0.371429 9.67127 0.174107 9.45283 0.136384C9.09194 0.0754464 8.52211 0 7.89213 0C4.72642 0 2.20334 1.86004 1.37392 4.41071H0.379886C0.170949 4.41071 0 4.56741 0 4.75893V5.45536C0 5.64687 0.170949 5.80357 0.379886 5.80357H1.11117C1.07318 6.26205 1.07951 6.8337 1.12383 7.19643H0.379886C0.170949 7.19643 0 7.35312 0 7.54464V8.24107C0 8.43259 0.170949 8.58929 0.379886 8.58929H1.39925C2.22233 11.1632 4.6726 13 7.88897 13C8.6614 13 9.3262 12.8781 9.70925 12.7911C9.91186 12.7446 10.0353 12.5618 9.991 12.379Z" fill="white"/>
</svg>
