<svg width="15" height="13" viewBox="0 0 15 13" fill="none" xmlns="http://www.w3.org/2000/svg">
<path d="M14.8597 6.09389L13.3329 4.75736V1.42212C13.3329 1.2605 13.2671 1.10551 13.1499 0.991233C13.0327 0.876955 12.8737 0.812755 12.708 0.812755H10.2082C10.0424 0.812755 9.88344 0.876955 9.76624 0.991233C9.64904 1.10551 9.5832 1.2605 9.5832 1.42212V1.47493L8.19162 0.256204C8.001 0.0911563 7.75493 0 7.5 0C7.24507 0 6.999 0.0911563 6.80838 0.256204L0.140333 6.09389C0.0576566 6.16532 0.00745522 6.26584 0.000765444 6.37335C-0.00592433 6.48085 0.0314452 6.58655 0.104658 6.6672L0.381202 6.97061C0.417533 7.01051 0.461568 7.04305 0.510794 7.06635C0.560019 7.08965 0.613471 7.10327 0.668096 7.10643C0.722721 7.10959 0.777449 7.10223 0.829155 7.08476C0.880861 7.0673 0.928531 7.04007 0.969445 7.00464L1.66601 6.39528V11.9844C1.66601 12.2538 1.77575 12.5121 1.97109 12.7025C2.16643 12.893 2.43136 13 2.70761 13H12.2913C12.5676 13 12.8325 12.893 13.0279 12.7025C13.2232 12.5121 13.3329 12.2538 13.3329 11.9844V6.39477L14.0295 7.00413C14.0704 7.03956 14.1181 7.06679 14.1698 7.08425C14.2215 7.10172 14.2762 7.10908 14.3309 7.10592C14.3855 7.10277 14.4389 7.08914 14.4882 7.06584C14.5374 7.04254 14.5814 7.01001 14.6178 6.97011L14.8953 6.6672C14.9686 6.58655 15.0059 6.48085 14.9992 6.37335C14.9925 6.26584 14.9423 6.16532 14.8597 6.09389ZM12.083 11.7813H2.91697V5.30045L7.5 1.28882L12.083 5.30045V11.7813ZM12.083 3.66305L10.8331 2.56899V2.03148H12.083V3.66305ZM5.83344 5.28141V7.71886C5.83344 7.8266 5.87734 7.92993 5.95548 8.00612C6.03361 8.0823 6.13958 8.1251 6.25008 8.1251H8.74992C8.86042 8.1251 8.96639 8.0823 9.04453 8.00612C9.12266 7.92993 9.16656 7.8266 9.16656 7.71886V5.28141C9.16656 5.17367 9.12266 5.07034 9.04453 4.99416C8.96639 4.91797 8.86042 4.87517 8.74992 4.87517H6.25008C6.13958 4.87517 6.03361 4.91797 5.95548 4.99416C5.87734 5.07034 5.83344 5.17367 5.83344 5.28141Z" fill="white"/>
</svg>
