<svg width="17" height="17" viewBox="0 0 17 17" fill="none" xmlns="http://www.w3.org/2000/svg">
<path d="M0 8.5C0 13.1956 3.80444 17 8.5 17C13.1956 17 17 13.1956 17 8.5C17 3.80444 13.1956 0 8.5 0C3.80444 0 0 3.80444 0 8.5ZM15.3548 8.5C15.3548 12.2873 12.2873 15.3548 8.5 15.3548C4.7127 15.3548 1.64516 12.2873 1.64516 8.5C1.64516 4.7127 4.7127 1.64516 8.5 1.64516C12.2873 1.64516 15.3548 4.7127 15.3548 8.5ZM12.8871 7.81452V9.18548C12.8871 9.41169 12.702 9.59677 12.4758 9.59677H8.5V11.8931C8.5 12.2599 8.05786 12.4415 7.79738 12.1845L4.40423 8.79133C4.24315 8.63024 4.24315 8.36976 4.40423 8.20867L7.79738 4.81552C8.05786 4.55504 8.5 4.74012 8.5 5.10685V7.40323H12.4758C12.702 7.40323 12.8871 7.58831 12.8871 7.81452Z" fill="white"/>
</svg>
