<svg xmlns="http://www.w3.org/2000/svg" height="24" heigh="24" viewBox="0 0 24 24">
  <path d="M0-.01h24v24H0v-24z" fill="none"/>
  <path d="M22 12.05c.01 5.56-4.58 10.1-10.21 10.11-2.64 0-5.04-.98-6.86-2.6a.487.487 0 01-.02-.71l.7-.69c.19-.18.49-.19.68-.02a8.297 8.297 0 005.49 2.06c4.56 0 8.24-3.64 8.24-8.14s-3.69-8.14-8.24-8.14c-2.29 0-4.36.92-5.85 2.4l2.02 1.97c.31.31.09.84-.35.84H2.32a.49.49 0 01-.49-.49V3.51c0-.43.53-.65.84-.35l1.86 1.81c1.85-1.84 4.42-2.98 7.26-2.98 5.63 0 10.2 4.5 10.21 10.06zm-6.88 3.67l.58-.79c.16-.22.11-.52-.11-.68l-2.82-2.02V6.38a.49.49 0 00-.49-.49h-.99a.49.49 0 00-.49.49v6.84l3.63 2.61c.22.16.52.11.69-.11z" fill="#010202"/>
</svg>