<svg width="15" height="15" viewBox="0 0 15 15" fill="none" xmlns="http://www.w3.org/2000/svg">
<path d="M15 7.48585C15.0077 11.6181 11.5936 14.9971 7.40722 15C5.44596 15.0014 3.65796 14.2693 2.30925 13.0663C2.15308 12.927 2.14686 12.6869 2.29567 12.5401L2.81529 12.0272C2.95405 11.8902 3.17609 11.8863 3.3225 12.0152C4.40562 12.969 5.83457 13.5484 7.40177 13.5484C10.7888 13.5484 13.5294 10.8427 13.5294 7.5C13.5294 4.15678 10.7882 1.45161 7.40177 1.45161C5.70075 1.45161 4.16309 2.13429 3.05353 3.23719L4.55758 4.70129C4.79169 4.92916 4.6282 5.32258 4.29943 5.32258H0.367656C0.164618 5.32258 0 5.16009 0 4.95968V1.13235C0 0.810242 0.393484 0.647782 0.625811 0.873962L2.00749 2.21894C3.38409 0.8488 5.29234 0 7.40177 0C11.5934 0 14.9922 3.35023 15 7.48585ZM9.88167 10.2129L10.3142 9.62589C10.4336 9.46379 10.3973 9.23682 10.2331 9.11894L8.13708 7.61425V3.26613C8.13708 3.06572 7.97246 2.90323 7.76942 2.90323H7.03411C6.83107 2.90323 6.66646 3.06572 6.66646 3.26613V8.35349L9.36808 10.2929C9.5323 10.4108 9.76224 10.3749 9.88167 10.2129Z" fill="white"/>
</svg>
