<svg width="14" height="15" viewBox="0 0 14 15" fill="none" xmlns="http://www.w3.org/2000/svg">
<path d="M10.5 9.84375C9.38984 9.84375 9.19844 9.7998 8.52578 10.043C8.04727 10.2158 7.5332 10.3125 7 10.3125C6.4668 10.3125 5.95273 10.2158 5.47422 10.043C4.80156 9.7998 4.61289 9.84375 3.5 9.84375C1.5668 9.84375 0 11.5225 0 13.5938V14.0625C0 14.5811 0.391016 15 0.875 15H13.125C13.609 15 14 14.5811 14 14.0625V13.5938C14 11.5225 12.4332 9.84375 10.5 9.84375ZM12.6875 13.5938H1.3125C1.3125 12.9668 1.53945 12.3779 1.95234 11.9355C2.36523 11.4932 2.91484 11.25 3.5 11.25C4.62383 11.25 4.62109 11.2178 5.05312 11.373C5.68203 11.6016 6.33828 11.7188 7 11.7188C7.66172 11.7188 8.31797 11.6016 8.94688 11.373C9.37891 11.2148 9.37617 11.25 10.5 11.25C11.7059 11.25 12.6875 12.3018 12.6875 13.5938ZM7 9.375C9.41719 9.375 11.375 7.27734 11.375 4.6875C11.375 2.09766 9.41719 0 7 0C4.58281 0 2.625 2.09766 2.625 4.6875C2.625 7.27734 4.58281 9.375 7 9.375ZM7 1.40625C8.68984 1.40625 10.0625 2.87695 10.0625 4.6875C10.0625 6.49805 8.68984 7.96875 7 7.96875C5.31016 7.96875 3.9375 6.49805 3.9375 4.6875C3.9375 2.87695 5.31016 1.40625 7 1.40625Z" fill="white"/>
</svg>
