<svg width="15" height="15" viewBox="0 0 15 15" fill="none" xmlns="http://www.w3.org/2000/svg">
<path d="M13.5938 3.21429H11.25V1.60714C11.25 0.719531 10.6204 0 9.84375 0H5.15625C4.37959 0 3.75 0.719531 3.75 1.60714V3.21429H1.40625C0.62959 3.21429 0 3.93382 0 4.82143V13.3929C0 14.2805 0.62959 15 1.40625 15H13.5938C14.3704 15 15 14.2805 15 13.3929V4.82143C15 3.93382 14.3704 3.21429 13.5938 3.21429ZM5.15625 1.60714H9.84375V3.21429H5.15625V1.60714ZM1.58203 4.82143H13.418C13.5149 4.82143 13.5938 4.9115 13.5938 5.02232V7.5H1.40625V5.02232C1.40625 4.9115 1.48506 4.82143 1.58203 4.82143ZM13.418 13.3929H1.58203C1.48506 13.3929 1.40625 13.3028 1.40625 13.192V9.10714H5.625V9.91071C5.625 10.3544 5.93994 10.7143 6.32812 10.7143H8.67188C9.06006 10.7143 9.375 10.3544 9.375 9.91071V9.10714H13.5938V13.192C13.5938 13.3028 13.5149 13.3929 13.418 13.3929Z" fill="white"/>
</svg>
