<svg xmlns="http://www.w3.org/2000/svg" height="24" heigh="24" viewBox="0 0 24 24">
  <path d="M0-.01h24v24H0v-24z" fill="none"/>
  <path d="M20.13 6.29H17V4.14C17 2.96 16.16 2 15.12 2H8.88C7.84 2 7 2.96 7 4.14v2.14H3.88C2.84 6.29 2 7.25 2 8.43v11.43C2 21.04 2.84 22 3.88 22h16.25c1.04 0 1.87-.96 1.87-2.14V8.43c0-1.18-.84-2.14-1.87-2.14zM8.88 4.14h6.25v2.14H8.88V4.14zM4.11 8.43h15.78c.13 0 .23.12.23.27V12H3.88V8.7c0-.15.1-.27.23-.27zm15.78 11.43H4.11c-.13 0-.23-.12-.23-.27v-5.45H9.5v1.07c0 .59.42 1.07.94 1.07h3.13c.52 0 .94-.48.94-1.07v-1.07h5.63v5.45c-.01.15-.12.27-.25.27z" fill="#010202"/>
</svg>